<svg width="14" height="14" viewBox="0 0 14 14" fill="none" xmlns="http://www.w3.org/2000/svg">
<path fill-rule="evenodd" clip-rule="evenodd" d="M5.74838 11.067C8.92313 11.067 11.4968 8.58955 11.4968 5.53349C11.4968 2.47743 8.92313 0 5.74838 0C2.57364 0 0 2.47743 0 5.53349C0 8.58955 2.57364 11.067 5.74838 11.067ZM5.74838 8.92991C7.69702 8.92991 9.2767 7.40928 9.2767 5.53349C9.2767 3.6577 7.69702 2.13707 5.74838 2.13707C3.79975 2.13707 2.22006 3.6577 2.22006 5.53349C2.22006 7.40928 3.79975 8.92991 5.74838 8.92991Z" fill="white"/>
<rect x="7.45892" y="9.70673" width="2.68938" height="6.01111" rx="1.34469" transform="rotate(-45 7.45892 9.70673)" fill="white"/>
</svg>
